<svg xmlns="http://www.w3.org/2000/svg" viewBox="0 0 192 32">
  <!-- Frame 0: idle_0 -->
  <g transform="translate(0,0)">
    <ellipse cx="16" cy="27" rx="8" ry="2" fill="#4A2740" opacity="0.35"/>
    <rect x="9" y="12" width="14" height="13" rx="3" fill="#7B2D5C"/>
    <circle cx="16" cy="10" r="7" fill="#A83A6E"/>
    <path d="M10,6 L5,2 L7,10 Z" fill="#6F2455"/>
    <path d="M22,6 L27,2 L25,10 Z" fill="#6F2455"/>
    <rect x="12" y="9" width="2" height="2" fill="#FFE16A"/>
    <rect x="18" y="9" width="2" height="2" fill="#FFE16A"/>
    <rect x="7" y="15" width="4" height="3" rx="1" fill="#B45A7C"/>
    <rect x="21" y="15" width="4" height="3" rx="1" fill="#B45A7C"/>
    <rect x="11" y="24" width="4" height="4" rx="1" fill="#59304F"/>
    <rect x="17" y="24" width="4" height="4" rx="1" fill="#59304F"/>
  </g>
  <!-- Frame 1: idle_1 -->
  <g transform="translate(32,0)">
    <ellipse cx="16" cy="27" rx="8" ry="2" fill="#4A2740" opacity="0.35"/>
    <rect x="9" y="13" width="14" height="12" rx="3" fill="#7B2D5C"/>
    <circle cx="16" cy="10" r="7" fill="#A83A6E"/>
    <path d="M10,6 L5,3 L7,10 Z" fill="#6F2455"/>
    <path d="M22,6 L27,3 L25,10 Z" fill="#6F2455"/>
    <rect x="12" y="9" width="2" height="2" fill="#FFE16A"/>
    <rect x="18" y="9" width="2" height="2" fill="#FFE16A"/>
    <rect x="7" y="16" width="4" height="3" rx="1" fill="#B45A7C"/>
    <rect x="21" y="16" width="4" height="3" rx="1" fill="#B45A7C"/>
    <rect x="10" y="24" width="4" height="4" rx="1" fill="#59304F"/>
    <rect x="18" y="24" width="4" height="4" rx="1" fill="#59304F"/>
  </g>
  <!-- Frame 2: attack -->
  <g transform="translate(64,0)">
    <ellipse cx="17" cy="27" rx="9" ry="2" fill="#4A2740" opacity="0.35"/>
    <rect x="10" y="12" width="14" height="13" rx="3" fill="#7B2D5C"/>
    <circle cx="17" cy="10" r="7" fill="#A83A6E"/>
    <path d="M11,6 L5,2 L8,11 Z" fill="#6F2455"/>
    <path d="M23,6 L29,2 L26,11 Z" fill="#6F2455"/>
    <rect x="13" y="9" width="2" height="2" fill="#FFE16A"/>
    <rect x="19" y="9" width="2" height="2" fill="#FFE16A"/>
    <rect x="3" y="15" width="9" height="3" rx="1" fill="#B45A7C"/>
    <rect x="23" y="14" width="8" height="3" rx="1" fill="#B45A7C"/>
    <rect x="11" y="24" width="4" height="4" rx="1" fill="#59304F"/>
    <rect x="20" y="24" width="4" height="4" rx="1" fill="#59304F"/>
  </g>
  <!-- Frame 3: hit -->
  <g transform="translate(96,0)">
    <ellipse cx="15" cy="27" rx="8" ry="2" fill="#4A2740" opacity="0.35"/>
    <rect x="8" y="13" width="14" height="12" rx="3" fill="#7B2D5C"/>
    <circle cx="15" cy="10" r="7" fill="#A83A6E"/>
    <path d="M9,6 L4,4 L7,10 Z" fill="#6F2455"/>
    <path d="M21,6 L26,4 L23,10 Z" fill="#6F2455"/>
    <path d="M11,9 L14,11" stroke="#FFE16A" stroke-width="1.5"/>
    <path d="M20,9 L17,11" stroke="#FFE16A" stroke-width="1.5"/>
    <rect x="6" y="17" width="4" height="3" rx="1" fill="#B45A7C"/>
    <rect x="20" y="17" width="4" height="3" rx="1" fill="#B45A7C"/>
    <rect x="10" y="24" width="4" height="4" rx="1" fill="#59304F"/>
    <rect x="16" y="24" width="4" height="4" rx="1" fill="#59304F"/>
  </g>
  <!-- Frame 4: die_0 -->
  <g transform="translate(128,0)">
    <ellipse cx="16" cy="28" rx="10" ry="2" fill="#4A2740" opacity="0.35"/>
    <rect x="8" y="18" width="17" height="7" rx="3" fill="#7B2D5C"/>
    <circle cx="13" cy="16" r="6" fill="#A83A6E"/>
    <path d="M9,13 L4,11 L7,17 Z" fill="#6F2455"/>
    <path d="M18,12 L23,9 L21,17 Z" fill="#6F2455"/>
    <path d="M10,16 L13,18" stroke="#FFE16A" stroke-width="1.5"/>
    <path d="M17,15 L14,18" stroke="#FFE16A" stroke-width="1.5"/>
  </g>
  <!-- Frame 5: die_1 -->
  <g transform="translate(160,0)">
    <ellipse cx="16" cy="28" rx="11" ry="2" fill="#4A2740" opacity="0.25"/>
    <rect x="7" y="21" width="18" height="5" rx="2" fill="#7B2D5C"/>
    <circle cx="12" cy="20" r="5" fill="#A83A6E"/>
    <path d="M8,18 L3,17 L7,22 Z" fill="#6F2455"/>
    <path d="M16,17 L22,15 L20,22 Z" fill="#6F2455"/>
  </g>
</svg>
