<svg xmlns="http://www.w3.org/2000/svg" width="32" height="64" viewBox="0 0 32 64" shape-rendering="crispEdges">
  <!-- Door frame -->
  <rect x="0" y="0" width="32" height="64" fill="#303030"/>
  <rect x="0" y="0" width="32" height="2" fill="#484848"/>
  <rect x="0" y="62" width="32" height="2" fill="#1C1C1C"/>
  <rect x="0" y="0" width="2" height="64" fill="#404040"/>
  <rect x="30" y="0" width="2" height="64" fill="#1C1C1C"/>
  <!-- Gray door panels -->
  <rect x="4" y="4" width="24" height="12" fill="#606060"/>
  <rect x="4" y="4" width="24" height="2" fill="#808080"/>
  <rect x="4" y="14" width="24" height="2" fill="#404040"/>
  <rect x="4" y="18" width="24" height="12" fill="#606060"/>
  <rect x="4" y="18" width="24" height="2" fill="#808080"/>
  <rect x="4" y="28" width="24" height="2" fill="#404040"/>
  <rect x="4" y="32" width="24" height="12" fill="#606060"/>
  <rect x="4" y="32" width="24" height="2" fill="#808080"/>
  <rect x="4" y="42" width="24" height="2" fill="#404040"/>
  <rect x="4" y="46" width="24" height="12" fill="#606060"/>
  <rect x="4" y="46" width="24" height="2" fill="#808080"/>
  <rect x="4" y="56" width="24" height="2" fill="#404040"/>
  <!-- Panel center highlights -->
  <rect x="12" y="8" width="8" height="4" fill="#707070"/>
  <rect x="12" y="22" width="8" height="4" fill="#707070"/>
  <rect x="12" y="36" width="8" height="4" fill="#707070"/>
  <rect x="12" y="50" width="8" height="4" fill="#707070"/>
  <!-- Lock bolts -->
  <rect x="6" y="9" width="4" height="2" fill="#505050"/>
  <rect x="22" y="9" width="4" height="2" fill="#505050"/>
  <rect x="6" y="23" width="4" height="2" fill="#505050"/>
  <rect x="22" y="23" width="4" height="2" fill="#505050"/>
  <rect x="6" y="37" width="4" height="2" fill="#505050"/>
  <rect x="22" y="37" width="4" height="2" fill="#505050"/>
  <rect x="6" y="51" width="4" height="2" fill="#505050"/>
  <rect x="22" y="51" width="4" height="2" fill="#505050"/>
  <!-- Horizontal dividers -->
  <rect x="2" y="16" width="28" height="2" fill="#282828"/>
  <rect x="2" y="30" width="28" height="2" fill="#282828"/>
  <rect x="2" y="44" width="28" height="2" fill="#282828"/>
</svg>
