<svg xmlns="http://www.w3.org/2000/svg" width="128" height="48" viewBox="0 0 128 48" shape-rendering="crispEdges">
  <rect x="8" y="12" width="16" height="16" fill="#C05030"/>
  <rect x="6" y="14" width="20" height="12" fill="#D06040"/>
  <rect x="10" y="10" width="12" height="4" fill="#D06040"/>
  <rect x="10" y="14" width="8" height="6" fill="#E07850"/>
  <rect x="12" y="16" width="4" height="4" fill="#F09068"/>
  <rect x="10" y="26" width="12" height="6" fill="#B04028"/>
  <rect x="12" y="28" width="8" height="4" fill="#C85838"/>
  <rect x="12" y="26" width="2" height="2" fill="#FFFFFF"/>
  <rect x="18" y="26" width="2" height="2" fill="#FFFFFF"/>
  <rect x="15" y="26" width="2" height="2" fill="#FFFFFF"/>
  <rect x="10" y="16" width="4" height="4" fill="#FFFF40"/>
  <rect x="18" y="16" width="4" height="4" fill="#FFFF40"/>
  <rect x="11" y="17" width="2" height="2" fill="#000000"/>
  <rect x="19" y="17" width="2" height="2" fill="#000000"/>
  <rect x="4" y="30" width="6" height="8" fill="#A04028"/>
  <rect x="22" y="30" width="6" height="8" fill="#A04028"/>
  <rect x="5" y="32" width="4" height="4" fill="#B85040"/>
  <rect x="23" y="32" width="4" height="4" fill="#B85040"/>
  <rect x="2" y="38" width="8" height="4" fill="#903828"/>
  <rect x="22" y="38" width="8" height="4" fill="#903828"/>
  <rect x="6" y="42" width="6" height="3" fill="#803020"/>
  <rect x="20" y="42" width="6" height="3" fill="#803020"/>
  <rect x="40" y="12" width="16" height="16" fill="#C05030"/>
  <rect x="38" y="14" width="20" height="12" fill="#D06040"/>
  <rect x="42" y="10" width="12" height="4" fill="#D06040"/>
  <rect x="42" y="14" width="8" height="6" fill="#E07850"/>
  <rect x="44" y="16" width="4" height="4" fill="#F09068"/>
  <rect x="42" y="26" width="12" height="6" fill="#B04028"/>
  <rect x="44" y="28" width="8" height="4" fill="#C85838"/>
  <rect x="44" y="26" width="2" height="2" fill="#FFFFFF"/>
  <rect x="50" y="26" width="2" height="2" fill="#FFFFFF"/>
  <rect x="47" y="26" width="2" height="2" fill="#FFFFFF"/>
  <rect x="42" y="16" width="4" height="4" fill="#FFFF40"/>
  <rect x="50" y="16" width="4" height="4" fill="#FFFF40"/>
  <rect x="43" y="17" width="2" height="2" fill="#000000"/>
  <rect x="51" y="17" width="2" height="2" fill="#000000"/>
  <rect x="36" y="32" width="6" height="8" fill="#A04028"/>
  <rect x="54" y="32" width="6" height="8" fill="#A04028"/>
  <rect x="37" y="34" width="4" height="4" fill="#B85040"/>
  <rect x="55" y="34" width="4" height="4" fill="#B85040"/>
  <rect x="34" y="40" width="8" height="4" fill="#903828"/>
  <rect x="54" y="40" width="8" height="4" fill="#903828"/>
  <rect x="38" y="44" width="6" height="3" fill="#803020"/>
  <rect x="52" y="44" width="6" height="3" fill="#803020"/>
  <rect x="72" y="6" width="16" height="16" fill="#C05030"/>
  <rect x="70" y="8" width="20" height="12" fill="#D06040"/>
  <rect x="74" y="4" width="12" height="4" fill="#D06040"/>
  <rect x="74" y="8" width="8" height="6" fill="#E07850"/>
  <rect x="76" y="10" width="4" height="4" fill="#F09068"/>
  <rect x="74" y="20" width="12" height="6" fill="#B04028"/>
  <rect x="76" y="22" width="8" height="4" fill="#C85838"/>
  <rect x="76" y="20" width="2" height="2" fill="#FFFFFF"/>
  <rect x="82" y="20" width="2" height="2" fill="#FFFFFF"/>
  <rect x="79" y="20" width="2" height="2" fill="#FFFFFF"/>
  <rect x="74" y="10" width="4" height="4" fill="#FFFF40"/>
  <rect x="82" y="10" width="4" height="4" fill="#FFFF40"/>
  <rect x="75" y="11" width="2" height="2" fill="#000000"/>
  <rect x="83" y="11" width="2" height="2" fill="#000000"/>
  <rect x="70" y="24" width="4" height="14" fill="#A04028"/>
  <rect x="86" y="24" width="4" height="14" fill="#A04028"/>
  <rect x="71" y="26" width="2" height="10" fill="#B85040"/>
  <rect x="87" y="26" width="2" height="10" fill="#B85040"/>
  <rect x="68" y="38" width="6" height="4" fill="#903828"/>
  <rect x="86" y="38" width="6" height="4" fill="#903828"/>
  <rect x="104" y="6" width="16" height="16" fill="#C05030"/>
  <rect x="102" y="8" width="20" height="12" fill="#D06040"/>
  <rect x="106" y="4" width="12" height="4" fill="#D06040"/>
  <rect x="106" y="8" width="8" height="6" fill="#E07850"/>
  <rect x="108" y="10" width="4" height="4" fill="#F09068"/>
  <rect x="106" y="20" width="12" height="6" fill="#B04028"/>
  <rect x="108" y="22" width="8" height="4" fill="#C85838"/>
  <rect x="108" y="20" width="2" height="2" fill="#FFFFFF"/>
  <rect x="114" y="20" width="2" height="2" fill="#FFFFFF"/>
  <rect x="111" y="20" width="2" height="2" fill="#FFFFFF"/>
  <rect x="106" y="10" width="4" height="4" fill="#FFFF40"/>
  <rect x="114" y="10" width="4" height="4" fill="#FFFF40"/>
  <rect x="107" y="11" width="2" height="2" fill="#000000"/>
  <rect x="115" y="11" width="2" height="2" fill="#000000"/>
  <rect x="102" y="24" width="4" height="18" fill="#A04028"/>
  <rect x="118" y="24" width="4" height="18" fill="#A04028"/>
  <rect x="103" y="26" width="2" height="14" fill="#B85040"/>
  <rect x="119" y="26" width="2" height="14" fill="#B85040"/>
  <rect x="100" y="42" width="6" height="4" fill="#903828"/>
  <rect x="118" y="42" width="6" height="4" fill="#903828"/>
</svg>
