<svg xmlns="http://www.w3.org/2000/svg" width="192" height="32" viewBox="0 0 192 32" shape-rendering="crispEdges">
<g transform="translate(0,0)"><rect x="6" y="6" width="20" height="20" fill="#f2cc33" stroke="#b38c1a" stroke-width="1"/><rect x="11" y="10" width="10" height="2" fill="#b38c1a"/><rect x="19" y="12" width="2" height="5" fill="#b38c1a"/><rect x="15" y="17" width="4" height="2" fill="#b38c1a"/><rect x="15" y="23" width="3" height="3" fill="#b38c1a"/></g><g transform="translate(32,0)"><rect x="6" y="6" width="20" height="20" fill="#ffd94d" stroke="#b38c1a" stroke-width="1"/><rect x="11" y="10" width="10" height="2" fill="#b38c1a"/><rect x="19" y="12" width="2" height="5" fill="#b38c1a"/><rect x="15" y="17" width="4" height="2" fill="#b38c1a"/><rect x="15" y="23" width="3" height="3" fill="#b38c1a"/></g><g transform="translate(64,0)"><rect x="6" y="6" width="20" height="20" fill="#e6b829" stroke="#b38c1a" stroke-width="1"/><rect x="11" y="10" width="10" height="2" fill="#b38c1a"/><rect x="19" y="12" width="2" height="5" fill="#b38c1a"/><rect x="15" y="17" width="4" height="2" fill="#b38c1a"/><rect x="15" y="23" width="3" height="3" fill="#b38c1a"/></g><g transform="translate(96,0)"><rect x="6" y="6" width="20" height="20" fill="#805933" stroke="#594026" stroke-width="1"/><rect x="8" y="8" width="16" height="3" fill="#9a7040"/></g><g transform="translate(128,0)"><rect x="6" y="6" width="20" height="20" fill="#b84c2e" stroke="#8c381f" stroke-width="1"/><line x1="6" y1="14" x2="26" y2="14" stroke="#8c381f" stroke-width="1.0"/><line x1="6" y1="22" x2="26" y2="22" stroke="#8c381f" stroke-width="1.0"/><line x1="11" y1="6" x2="11" y2="14" stroke="#8c381f" stroke-width="1.0"/><line x1="21" y1="6" x2="21" y2="14" stroke="#8c381f" stroke-width="1.0"/><line x1="16" y1="14" x2="16" y2="22" stroke="#8c381f" stroke-width="1.0"/><line x1="11" y1="22" x2="11" y2="26" stroke="#8c381f" stroke-width="1.0"/><line x1="21" y1="22" x2="21" y2="26" stroke="#8c381f" stroke-width="1.0"/></g><g transform="translate(160,0)"><rect x="6" y="6" width="20" height="20" fill="#805933" stroke="#594026" stroke-width="1"/><rect x="8" y="8" width="16" height="3" fill="#9a7040"/></g>
</svg>
