<svg xmlns="http://www.w3.org/2000/svg" width="96" height="32" viewBox="0 0 96 32" shape-rendering="crispEdges">
<g transform="translate(0,0)"><rect x="7" y="27" width="7" height="3" fill="#592e14"/><rect x="16" y="27" width="7" height="3" fill="#592e14"/><polygon points="7,29 25,29 22,16 10,16" fill="#8c4c26" stroke="#592e14" stroke-width="1"/><circle cx="13" cy="20" r="2" fill="#ffffff"/><circle cx="20" cy="20" r="2" fill="#ffffff"/><circle cx="13" cy="20" r="1" fill="#000000"/><circle cx="20" cy="20" r="1" fill="#000000"/><rect x="10" y="17" width="5" height="1" fill="#592e14"/><rect x="18" y="17" width="5" height="1" fill="#592e14"/></g><g transform="translate(32,0)"><rect x="7" y="27" width="7" height="3" fill="#592e14"/><rect x="20" y="27" width="7" height="3" fill="#592e14"/><polygon points="7,29 25,29 22,16 10,16" fill="#8c4c26" stroke="#592e14" stroke-width="1"/><circle cx="13" cy="20" r="2" fill="#ffffff"/><circle cx="20" cy="20" r="2" fill="#ffffff"/><circle cx="13" cy="20" r="1" fill="#000000"/><circle cx="20" cy="20" r="1" fill="#000000"/><rect x="10" y="17" width="5" height="1" fill="#592e14"/><rect x="18" y="17" width="5" height="1" fill="#592e14"/></g><g transform="translate(64,0)"><rect x="8" y="25" width="16" height="5" fill="#8c4c26" stroke="#592e14" stroke-width="1"/><rect x="12" y="27" width="3" height="1" fill="#592e14"/><rect x="18" y="27" width="3" height="1" fill="#592e14"/></g>
</svg>
