<svg xmlns="http://www.w3.org/2000/svg" width="128" height="32" viewBox="0 0 128 32" shape-rendering="crispEdges">
<g transform="translate(0,0)"><polygon points="7,29 25,29 25,24 22,18 16,16 10,18 7,24" fill="#33b340" stroke="#268c33" stroke-width="1"/><rect x="8" y="27" width="16" height="3" fill="#f2d98c"/><rect x="9" y="21" width="10" height="2" fill="#268c33"/><rect x="12" y="18" width="8" height="1" fill="#66d96f"/></g><g transform="translate(32,0)"><polygon points="7,29 25,29 25,24 22,18 16,16 10,18 7,24" fill="#33b340" stroke="#268c33" stroke-width="1"/><rect x="8" y="27" width="16" height="3" fill="#f2d98c"/><rect x="11" y="21" width="10" height="2" fill="#268c33"/><rect x="12" y="18" width="8" height="1" fill="#66d96f"/></g><g transform="translate(64,0)"><polygon points="7,29 25,29 25,24 22,18 16,16 10,18 7,24" fill="#33b340" stroke="#268c33" stroke-width="1"/><rect x="8" y="27" width="16" height="3" fill="#f2d98c"/><rect x="13" y="21" width="10" height="2" fill="#268c33"/><rect x="12" y="18" width="8" height="1" fill="#66d96f"/></g><g transform="translate(96,0)"><polygon points="7,29 25,29 25,24 22,18 16,16 10,18 7,24" fill="#33b340" stroke="#268c33" stroke-width="1"/><rect x="8" y="27" width="16" height="3" fill="#f2d98c"/><rect x="11" y="21" width="10" height="2" fill="#268c33"/><rect x="12" y="18" width="8" height="1" fill="#66d96f"/></g>
</svg>
