<svg xmlns="http://www.w3.org/2000/svg" width="96" height="32" viewBox="0 0 96 32" shape-rendering="crispEdges">
<g transform="translate(0,0)"><rect x="9" y="27" width="5" height="3" fill="#1f7a27"/><rect x="16" y="27" width="5" height="3" fill="#1f7a27"/><rect x="10" y="18" width="12" height="9" fill="#f2d98c" stroke="#592e14" stroke-width="1"/><polygon points="8,19 24,19 22,11 18,8 14,8 10,11" fill="#33b340" stroke="#268c33" stroke-width="1"/><rect x="10" y="14" width="12" height="2" fill="#268c33"/><circle cx="22" cy="11" r="4" fill="#47c452" stroke="#268c33" stroke-width="1"/><circle cx="23" cy="10" r="1.5" fill="#ffffff"/><circle cx="23.5" cy="10" r="0.7" fill="#000000"/></g><g transform="translate(32,0)"><rect x="9" y="27" width="5" height="3" fill="#1f7a27"/><rect x="20" y="27" width="5" height="3" fill="#1f7a27"/><rect x="10" y="18" width="12" height="9" fill="#f2d98c" stroke="#592e14" stroke-width="1"/><polygon points="8,19 24,19 22,11 18,8 14,8 10,11" fill="#33b340" stroke="#268c33" stroke-width="1"/><rect x="10" y="14" width="12" height="2" fill="#268c33"/><circle cx="22" cy="11" r="4" fill="#47c452" stroke="#268c33" stroke-width="1"/><circle cx="23" cy="10" r="1.5" fill="#ffffff"/><circle cx="23.5" cy="10" r="0.7" fill="#000000"/></g><g transform="translate(64,0)"><rect x="9" y="27" width="5" height="3" fill="#1f7a27"/><rect x="16" y="27" width="5" height="3" fill="#1f7a27"/><rect x="10" y="18" width="12" height="9" fill="#f2d98c" stroke="#592e14" stroke-width="1"/><polygon points="8,19 24,19 22,11 18,8 14,8 10,11" fill="#33b340" stroke="#268c33" stroke-width="1"/><rect x="10" y="14" width="12" height="2" fill="#268c33"/><circle cx="22" cy="11" r="4" fill="#47c452" stroke="#268c33" stroke-width="1"/><circle cx="23" cy="10" r="1.5" fill="#ffffff"/><circle cx="23.5" cy="10" r="0.7" fill="#000000"/></g>
</svg>
