<svg xmlns="http://www.w3.org/2000/svg" width="128" height="32" viewBox="0 0 128 32" shape-rendering="crispEdges">
<g transform="translate(0,0)"><rect x="14" y="22" width="4" height="8" fill="#269926"/><rect x="8" y="11" width="16" height="12" fill="#269926" stroke="#176617" stroke-width="1"/><rect x="7" y="11" width="18" height="3" fill="#cc261f"/><rect x="7" y="21" width="18" height="2" fill="#cc261f"/><rect x="12" y="14" width="2" height="4" fill="#ffffff"/><rect x="19" y="14" width="2" height="4" fill="#ffffff"/></g><g transform="translate(32,0)"><rect x="14" y="14" width="4" height="16" fill="#269926"/><rect x="8" y="3" width="16" height="12" fill="#269926" stroke="#176617" stroke-width="1"/><rect x="7" y="3" width="18" height="3" fill="#cc261f"/><rect x="7" y="13" width="18" height="2" fill="#cc261f"/><rect x="12" y="6" width="2" height="4" fill="#ffffff"/><rect x="19" y="6" width="2" height="4" fill="#ffffff"/></g><g transform="translate(64,0)"><rect x="14" y="6" width="4" height="24" fill="#269926"/><rect x="8" y="-5" width="16" height="12" fill="#269926" stroke="#176617" stroke-width="1"/><rect x="7" y="-5" width="18" height="3" fill="#cc261f"/><rect x="7" y="5" width="18" height="2" fill="#cc261f"/><rect x="12" y="-2" width="2" height="4" fill="#ffffff"/><rect x="19" y="-2" width="2" height="4" fill="#ffffff"/></g><g transform="translate(96,0)"><rect x="14" y="-2" width="4" height="32" fill="#269926"/><rect x="8" y="-13" width="16" height="12" fill="#269926" stroke="#176617" stroke-width="1"/><rect x="7" y="-13" width="18" height="3" fill="#cc261f"/><rect x="7" y="-3" width="18" height="2" fill="#cc261f"/><rect x="12" y="-10" width="2" height="4" fill="#ffffff"/><rect x="19" y="-10" width="2" height="4" fill="#ffffff"/></g>
</svg>
