<svg xmlns="http://www.w3.org/2000/svg" width="192" height="96" viewBox="0 0 192 96" shape-rendering="crispEdges">
<g transform="translate(0,0)"><rect x="10" y="27" width="5" height="3" fill="#e62626"/><rect x="15" y="27" width="5" height="3" fill="#e62626"/><rect x="10" y="21" width="12" height="8" fill="#334dbf"/><rect x="11" y="19" width="10" height="3" fill="#e62626"/><rect x="12" y="16" width="8" height="4" fill="#f2bf8c"/><rect x="10" y="14" width="12" height="3" fill="#e62626"/><rect x="17" y="17" width="2" height="2" fill="#ffffff"/><rect x="18" y="17" width="1" height="1" fill="#000000"/></g><g transform="translate(32,0)"><rect x="10" y="27" width="5" height="3" fill="#e62626"/><rect x="15" y="27" width="5" height="3" fill="#e62626"/><rect x="10" y="21" width="12" height="8" fill="#334dbf"/><rect x="11" y="19" width="10" height="3" fill="#e62626"/><rect x="12" y="16" width="8" height="4" fill="#f2bf8c"/><rect x="10" y="14" width="12" height="3" fill="#e62626"/><rect x="17" y="17" width="2" height="2" fill="#ffffff"/><rect x="18" y="17" width="1" height="1" fill="#000000"/></g><g transform="translate(64,0)"><rect x="10" y="27" width="5" height="3" fill="#e62626"/><rect x="19" y="27" width="5" height="3" fill="#e62626"/><rect x="10" y="21" width="12" height="8" fill="#334dbf"/><rect x="11" y="19" width="10" height="3" fill="#e62626"/><rect x="12" y="16" width="8" height="4" fill="#f2bf8c"/><rect x="10" y="14" width="12" height="3" fill="#e62626"/><rect x="17" y="17" width="2" height="2" fill="#ffffff"/><rect x="18" y="17" width="1" height="1" fill="#000000"/></g><g transform="translate(96,0)"><rect x="10" y="27" width="5" height="3" fill="#e62626"/><rect x="15" y="27" width="5" height="3" fill="#e62626"/><rect x="10" y="21" width="12" height="8" fill="#334dbf"/><rect x="11" y="19" width="10" height="3" fill="#e62626"/><rect x="12" y="16" width="8" height="4" fill="#f2bf8c"/><rect x="10" y="14" width="12" height="3" fill="#e62626"/><rect x="17" y="17" width="2" height="2" fill="#ffffff"/><rect x="18" y="17" width="1" height="1" fill="#000000"/></g><g transform="translate(128,0)"><rect x="10" y="27" width="5" height="3" fill="#e62626"/><rect x="15" y="27" width="5" height="3" fill="#e62626"/><rect x="10" y="23" width="12" height="8" fill="#334dbf"/><rect x="11" y="21" width="10" height="3" fill="#e62626"/><rect x="12" y="18" width="8" height="4" fill="#f2bf8c"/><rect x="10" y="16" width="12" height="3" fill="#e62626"/><rect x="12" y="19" width="8" height="1" fill="#000000"/></g><g transform="translate(160,0)"><rect x="10" y="27" width="5" height="3" fill="#e62626"/><rect x="15" y="27" width="5" height="3" fill="#e62626"/><rect x="8" y="12" width="3" height="6" fill="#f2bf8c"/><rect x="21" y="12" width="3" height="6" fill="#f2bf8c"/><rect x="10" y="18" width="12" height="10" fill="#334dbf"/><rect x="10" y="11" width="12" height="7" fill="#e62626"/><rect x="11" y="5" width="10" height="6" fill="#f2bf8c"/><rect x="10" y="2" width="12" height="4" fill="#e62626"/><rect x="17" y="6" width="2" height="2" fill="#ffffff"/><rect x="18" y="6" width="1" height="1" fill="#000000"/><rect x="19" y="8" width="2" height="2" fill="#d9a87a"/></g><g transform="translate(0,32)"><rect x="10" y="27" width="5" height="3" fill="#e62626"/><rect x="15" y="27" width="5" height="3" fill="#e62626"/><rect x="8" y="12" width="3" height="6" fill="#f2bf8c"/><rect x="21" y="12" width="3" height="6" fill="#f2bf8c"/><rect x="10" y="18" width="12" height="10" fill="#334dbf"/><rect x="10" y="11" width="12" height="7" fill="#e62626"/><rect x="11" y="5" width="10" height="6" fill="#f2bf8c"/><rect x="10" y="2" width="12" height="4" fill="#e62626"/><rect x="17" y="6" width="2" height="2" fill="#ffffff"/><rect x="18" y="6" width="1" height="1" fill="#000000"/><rect x="19" y="8" width="2" height="2" fill="#d9a87a"/></g><g transform="translate(32,32)"><rect x="10" y="27" width="5" height="3" fill="#e62626"/><rect x="19" y="27" width="5" height="3" fill="#e62626"/><rect x="8" y="12" width="3" height="6" fill="#f2bf8c"/><rect x="21" y="12" width="3" height="6" fill="#f2bf8c"/><rect x="10" y="18" width="12" height="10" fill="#334dbf"/><rect x="10" y="11" width="12" height="7" fill="#e62626"/><rect x="11" y="5" width="10" height="6" fill="#f2bf8c"/><rect x="10" y="2" width="12" height="4" fill="#e62626"/><rect x="17" y="6" width="2" height="2" fill="#ffffff"/><rect x="18" y="6" width="1" height="1" fill="#000000"/><rect x="19" y="8" width="2" height="2" fill="#d9a87a"/></g><g transform="translate(64,32)"><rect x="10" y="27" width="5" height="3" fill="#e62626"/><rect x="15" y="27" width="5" height="3" fill="#e62626"/><rect x="8" y="11" width="3" height="5" fill="#f2bf8c"/><rect x="22" y="6" width="3" height="6" fill="#f2bf8c"/><rect x="10" y="18" width="12" height="10" fill="#334dbf"/><rect x="10" y="11" width="12" height="7" fill="#e62626"/><rect x="11" y="5" width="10" height="6" fill="#f2bf8c"/><rect x="10" y="2" width="12" height="4" fill="#e62626"/><rect x="17" y="6" width="2" height="2" fill="#ffffff"/><rect x="18" y="6" width="1" height="1" fill="#000000"/><rect x="19" y="8" width="2" height="2" fill="#d9a87a"/></g><g transform="translate(96,32)"><rect x="10" y="27" width="5" height="3" fill="#e62626"/><rect x="15" y="27" width="5" height="3" fill="#e62626"/><rect x="10" y="20" width="12" height="8" fill="#334dbf"/><rect x="11" y="18" width="10" height="3" fill="#e62626"/><rect x="12" y="15" width="8" height="4" fill="#f2bf8c"/><rect x="10" y="13" width="12" height="3" fill="#e62626"/><rect x="17" y="16" width="2" height="2" fill="#ffffff"/><rect x="18" y="16" width="1" height="1" fill="#000000"/></g><g transform="translate(128,32)"><rect x="10" y="27" width="5" height="3" fill="#e62626"/><rect x="15" y="27" width="5" height="3" fill="#e62626"/><rect x="8" y="12" width="3" height="6" fill="#f2bf8c"/><rect x="21" y="12" width="3" height="6" fill="#f2bf8c"/><rect x="10" y="18" width="12" height="10" fill="#334dbf"/><rect x="10" y="11" width="12" height="7" fill="#e62626"/><rect x="11" y="5" width="10" height="6" fill="#f2bf8c"/><rect x="10" y="2" width="12" height="4" fill="#e62626"/><rect x="17" y="6" width="2" height="2" fill="#ffffff"/><rect x="18" y="6" width="1" height="1" fill="#000000"/><rect x="19" y="8" width="2" height="2" fill="#d9a87a"/></g><g transform="translate(160,32)"><rect x="10" y="27" width="5" height="3" fill="#f2f2f2"/><rect x="15" y="27" width="5" height="3" fill="#f2f2f2"/><rect x="8" y="12" width="3" height="6" fill="#f2bf8c"/><rect x="21" y="12" width="3" height="6" fill="#f2bf8c"/><rect x="10" y="18" width="12" height="10" fill="#334dbf"/><rect x="10" y="11" width="12" height="7" fill="#f2f2f2"/><rect x="11" y="5" width="10" height="6" fill="#f2bf8c"/><rect x="10" y="2" width="12" height="4" fill="#f2f2f2"/><rect x="17" y="6" width="2" height="2" fill="#ffffff"/><rect x="18" y="6" width="1" height="1" fill="#000000"/><rect x="19" y="8" width="2" height="2" fill="#d9a87a"/></g><g transform="translate(0,64)"><rect x="10" y="27" width="5" height="3" fill="#f2f2f2"/><rect x="15" y="27" width="5" height="3" fill="#f2f2f2"/><rect x="8" y="12" width="3" height="6" fill="#f2bf8c"/><rect x="21" y="12" width="3" height="6" fill="#f2bf8c"/><rect x="10" y="18" width="12" height="10" fill="#334dbf"/><rect x="10" y="11" width="12" height="7" fill="#f2f2f2"/><rect x="11" y="5" width="10" height="6" fill="#f2bf8c"/><rect x="10" y="2" width="12" height="4" fill="#f2f2f2"/><rect x="17" y="6" width="2" height="2" fill="#ffffff"/><rect x="18" y="6" width="1" height="1" fill="#000000"/><rect x="19" y="8" width="2" height="2" fill="#d9a87a"/></g><g transform="translate(32,64)"><rect x="10" y="27" width="5" height="3" fill="#f2f2f2"/><rect x="19" y="27" width="5" height="3" fill="#f2f2f2"/><rect x="8" y="12" width="3" height="6" fill="#f2bf8c"/><rect x="21" y="12" width="3" height="6" fill="#f2bf8c"/><rect x="10" y="18" width="12" height="10" fill="#334dbf"/><rect x="10" y="11" width="12" height="7" fill="#f2f2f2"/><rect x="11" y="5" width="10" height="6" fill="#f2bf8c"/><rect x="10" y="2" width="12" height="4" fill="#f2f2f2"/><rect x="17" y="6" width="2" height="2" fill="#ffffff"/><rect x="18" y="6" width="1" height="1" fill="#000000"/><rect x="19" y="8" width="2" height="2" fill="#d9a87a"/></g><g transform="translate(64,64)"><rect x="10" y="27" width="5" height="3" fill="#f2f2f2"/><rect x="15" y="27" width="5" height="3" fill="#f2f2f2"/><rect x="8" y="11" width="3" height="5" fill="#f2bf8c"/><rect x="22" y="6" width="3" height="6" fill="#f2bf8c"/><rect x="10" y="18" width="12" height="10" fill="#334dbf"/><rect x="10" y="11" width="12" height="7" fill="#f2f2f2"/><rect x="11" y="5" width="10" height="6" fill="#f2bf8c"/><rect x="10" y="2" width="12" height="4" fill="#f2f2f2"/><rect x="17" y="6" width="2" height="2" fill="#ffffff"/><rect x="18" y="6" width="1" height="1" fill="#000000"/><rect x="19" y="8" width="2" height="2" fill="#d9a87a"/></g><g transform="translate(96,64)"><rect x="10" y="27" width="5" height="3" fill="#f2f2f2"/><rect x="15" y="27" width="5" height="3" fill="#f2f2f2"/><rect x="10" y="20" width="12" height="8" fill="#334dbf"/><rect x="11" y="18" width="10" height="3" fill="#f2f2f2"/><rect x="12" y="15" width="8" height="4" fill="#f2bf8c"/><rect x="10" y="13" width="12" height="3" fill="#f2f2f2"/><rect x="17" y="16" width="2" height="2" fill="#ffffff"/><rect x="18" y="16" width="1" height="1" fill="#000000"/></g><g transform="translate(128,64)"><rect x="10" y="27" width="5" height="3" fill="#f2f2f2"/><rect x="15" y="27" width="5" height="3" fill="#f2f2f2"/><rect x="8" y="12" width="3" height="6" fill="#f2bf8c"/><rect x="21" y="12" width="3" height="6" fill="#f2bf8c"/><rect x="10" y="18" width="12" height="10" fill="#334dbf"/><rect x="10" y="11" width="12" height="7" fill="#f2f2f2"/><rect x="11" y="5" width="10" height="6" fill="#f2bf8c"/><rect x="10" y="2" width="12" height="4" fill="#f2f2f2"/><rect x="17" y="6" width="2" height="2" fill="#ffffff"/><rect x="18" y="6" width="1" height="1" fill="#000000"/><rect x="19" y="8" width="2" height="2" fill="#d9a87a"/></g>
</svg>
