<svg xmlns="http://www.w3.org/2000/svg" width="160" height="32" viewBox="0 0 160 32" shape-rendering="crispEdges">
<g transform="translate(0,0)"><rect x="12" y="21" width="8" height="8" fill="#f2e6cc"/><polygon points="7,22 25,22 23,14 20,9 16,7 12,9 9,14" fill="#e62626" stroke="#8c1f1f" stroke-width="1"/><circle cx="11" cy="16" r="2" fill="#f2e6cc"/><circle cx="21" cy="16" r="2" fill="#f2e6cc"/><circle cx="16" cy="12" r="2" fill="#f2e6cc"/></g><g transform="translate(32,0)"><rect x="12" y="21" width="8" height="8" fill="#f2e6cc"/><polygon points="7,22 25,22 23,14 20,9 16,7 12,9 9,14" fill="#39b54a" stroke="#8c1f1f" stroke-width="1"/><circle cx="11" cy="16" r="2" fill="#f2e6cc"/><circle cx="21" cy="16" r="2" fill="#f2e6cc"/><circle cx="16" cy="12" r="2" fill="#f2e6cc"/></g><g transform="translate(64,0)"><rect x="15" y="19" width="2" height="10" fill="#269926"/><circle cx="16" cy="10" r="4" fill="#ff8c1a"/><circle cx="10" cy="14" r="4" fill="#ff401a"/><circle cx="22" cy="14" r="4" fill="#ffe626"/><circle cx="12" cy="21" r="4" fill="#ff8c1a"/><circle cx="20" cy="21" r="4" fill="#ff401a"/><circle cx="16" cy="16" r="3" fill="#ffe626" stroke="#ff401a" stroke-width="1"/></g><g transform="translate(96,0)"><rect x="15" y="19" width="2" height="10" fill="#269926"/><circle cx="16" cy="10" r="4" fill="#ff401a"/><circle cx="10" cy="14" r="4" fill="#ffe626"/><circle cx="22" cy="14" r="4" fill="#ff8c1a"/><circle cx="12" cy="21" r="4" fill="#ff401a"/><circle cx="20" cy="21" r="4" fill="#ffe626"/><circle cx="16" cy="16" r="3" fill="#ffe626" stroke="#ff401a" stroke-width="1"/></g><g transform="translate(128,0)"><rect x="15" y="19" width="2" height="10" fill="#269926"/><circle cx="16" cy="10" r="4" fill="#ffe626"/><circle cx="10" cy="14" r="4" fill="#ff8c1a"/><circle cx="22" cy="14" r="4" fill="#ff401a"/><circle cx="12" cy="21" r="4" fill="#ffe626"/><circle cx="20" cy="21" r="4" fill="#ff8c1a"/><circle cx="16" cy="16" r="3" fill="#ffe626" stroke="#ff401a" stroke-width="1"/></g>
</svg>
