<svg xmlns="http://www.w3.org/2000/svg" width="320" height="32" viewBox="0 0 320 32" shape-rendering="crispEdges">
<g transform="translate(0,0)"><rect x="11" y="9" width="10" height="2" fill="#ffffff"/><rect x="11" y="21" width="10" height="2" fill="#ffffff"/><rect x="11" y="9" width="2" height="14" fill="#ffffff"/><rect x="19" y="9" width="2" height="14" fill="#ffffff"/></g><g transform="translate(32,0)"><rect x="15" y="9" width="2" height="14" fill="#ffffff"/></g><g transform="translate(64,0)"><rect x="11" y="9" width="10" height="2" fill="#ffffff"/><rect x="19" y="9" width="2" height="8" fill="#ffffff"/><rect x="11" y="15" width="10" height="2" fill="#ffffff"/><rect x="11" y="15" width="2" height="8" fill="#ffffff"/><rect x="11" y="21" width="10" height="2" fill="#ffffff"/></g><g transform="translate(96,0)"><rect x="11" y="9" width="10" height="2" fill="#ffffff"/><rect x="11" y="15" width="10" height="2" fill="#ffffff"/><rect x="11" y="21" width="10" height="2" fill="#ffffff"/><rect x="19" y="9" width="2" height="14" fill="#ffffff"/></g><g transform="translate(128,0)"><rect x="11" y="9" width="2" height="8" fill="#ffffff"/><rect x="11" y="15" width="10" height="2" fill="#ffffff"/><rect x="19" y="9" width="2" height="14" fill="#ffffff"/></g><g transform="translate(160,0)"><rect x="11" y="9" width="10" height="2" fill="#ffffff"/><rect x="11" y="9" width="2" height="8" fill="#ffffff"/><rect x="11" y="15" width="10" height="2" fill="#ffffff"/><rect x="19" y="15" width="2" height="8" fill="#ffffff"/><rect x="11" y="21" width="10" height="2" fill="#ffffff"/></g><g transform="translate(192,0)"><rect x="11" y="9" width="10" height="2" fill="#ffffff"/><rect x="11" y="9" width="2" height="14" fill="#ffffff"/><rect x="11" y="15" width="10" height="2" fill="#ffffff"/><rect x="19" y="15" width="2" height="8" fill="#ffffff"/><rect x="11" y="21" width="10" height="2" fill="#ffffff"/></g><g transform="translate(224,0)"><rect x="11" y="9" width="10" height="2" fill="#ffffff"/><rect x="19" y="9" width="2" height="14" fill="#ffffff"/></g><g transform="translate(256,0)"><rect x="11" y="9" width="10" height="2" fill="#ffffff"/><rect x="11" y="15" width="10" height="2" fill="#ffffff"/><rect x="11" y="21" width="10" height="2" fill="#ffffff"/><rect x="11" y="9" width="2" height="14" fill="#ffffff"/><rect x="19" y="9" width="2" height="14" fill="#ffffff"/></g><g transform="translate(288,0)"><rect x="11" y="9" width="10" height="2" fill="#ffffff"/><rect x="11" y="9" width="2" height="8" fill="#ffffff"/><rect x="11" y="15" width="10" height="2" fill="#ffffff"/><rect x="19" y="9" width="2" height="14" fill="#ffffff"/><rect x="11" y="21" width="10" height="2" fill="#ffffff"/></g>
</svg>
