<svg xmlns="http://www.w3.org/2000/svg" width="96" height="32" viewBox="0 0 96 32" shape-rendering="crispEdges">
<g transform="translate(0,0)"><polygon points="16,4 19,12 28,12 21,18 24,27 16,22 8,27 11,18 4,12 13,12" fill="#ffe626" stroke="#a87900" stroke-width="1"/><circle cx="13" cy="15" r="1" fill="#000000"/><circle cx="19" cy="15" r="1" fill="#000000"/></g><g transform="translate(32,0)"><polygon points="16,4 19,12 28,12 21,18 24,27 16,22 8,27 11,18 4,12 13,12" fill="#ff8c1a" stroke="#a87900" stroke-width="1"/><circle cx="13" cy="15" r="1" fill="#000000"/><circle cx="19" cy="15" r="1" fill="#000000"/></g><g transform="translate(64,0)"><polygon points="16,4 19,12 28,12 21,18 24,27 16,22 8,27 11,18 4,12 13,12" fill="#99e64d" stroke="#a87900" stroke-width="1"/><circle cx="13" cy="15" r="1" fill="#000000"/><circle cx="19" cy="15" r="1" fill="#000000"/></g>
</svg>
