<svg xmlns="http://www.w3.org/2000/svg" width="96" height="96" viewBox="0 0 96 96">
  <rect width="96" height="96" fill="none"/>
  <path d="M30 82 L22 44 L30 18 L48 10 L66 18 L74 42 L66 82 Z" fill="#75bdf3"/>
  <path d="M40 80 L34 45 L38 28 L48 20 L58 28 L62 45 L56 80 Z" fill="#eff8ff"/>
  <path d="M52 32 L70 38 L52 46 Z" fill="#ffc86c"/>
  <path d="M38 16 L48 4 L60 16 Z" fill="#dff5ff"/>
  <rect x="48" y="30" width="6" height="8" fill="#102031"/>
  <path d="M28 82 L18 90 H34 Z" fill="#ffb75a"/>
  <path d="M62 82 L78 90 H60 Z" fill="#ffb75a"/>
  <path d="M20 86 H76" stroke="#b7dff9" stroke-width="4" stroke-linecap="round"/>
</svg>
