<svg xmlns="http://www.w3.org/2000/svg" width="96" height="96" viewBox="0 0 96 96">
  <rect width="96" height="96" fill="none"/>
  <path d="M48 10 L64 18 L76 38 L70 78 L48 86 L26 78 L20 38 L32 18 Z" fill="#7bcab1"/>
  <path d="M30 54 L8 40 L18 26 L36 40 Z" fill="#c6f3dc"/>
  <path d="M66 54 L88 40 L78 26 L60 40 Z" fill="#c6f3dc"/>
  <path d="M40 78 L36 42 L42 24 L54 24 L60 42 L56 78 Z" fill="#eefdf4"/>
  <path d="M48 8 L58 2 L56 16 Z" fill="#f5ffe6"/>
  <path d="M54 32 L72 26 L60 42 Z" fill="#ffcc70"/>
  <rect x="52" y="28" width="6" height="8" fill="#0c2c24"/>
  <path d="M20 82 H76" stroke="#9be0c6" stroke-width="4" stroke-linecap="round"/>
</svg>
