<svg xmlns="http://www.w3.org/2000/svg" width="32" height="48" viewBox="0 0 32 48">
  <rect x="10" y="5" width="12" height="10" rx="3" fill="#f5f7fa"/>
  <path d="M8 15H24V31C24 33 22 35 20 35H12C10 35 8 33 8 31V15Z" fill="#3d8bfd"/>
  <rect x="6" y="20" width="4" height="11" rx="2" transform="rotate(24 8 25.5)" fill="#ffd166"/>
  <rect x="22" y="20" width="4" height="11" rx="2" transform="rotate(-24 24 25.5)" fill="#ffd166"/>
  <rect x="8" y="34" width="5" height="11" rx="2" transform="rotate(12 10.5 39.5)" fill="#f5f7fa"/>
  <rect x="19" y="34" width="5" height="11" rx="2" transform="rotate(-12 21.5 39.5)" fill="#f5f7fa"/>
  <path d="M10 2L6 8M16 1V8M22 2L26 8" stroke="#9fb3c8" stroke-width="2" stroke-linecap="round"/>
</svg>
