<svg xmlns="http://www.w3.org/2000/svg" width="64" height="96" viewBox="0 0 64 96" shape-rendering="crispEdges">
  <rect x="20" y="5" width="20" height="4" fill="#D04040"/>
  <rect x="18" y="9" width="24" height="12" fill="#C83838"/>
  <rect x="20" y="7" width="20" height="2" fill="#C83838"/>
  <rect x="21" y="6" width="18" height="1" fill="#C83838"/>
  <rect x="22" y="7" width="14" height="2" fill="#E05858"/>
  <rect x="32" y="12" width="8" height="4" fill="#20D820"/>
  <rect x="33" y="11" width="6" height="1" fill="#30E830"/>
  <rect x="33" y="16" width="6" height="1" fill="#18B018"/>
  <rect x="33" y="12" width="2" height="2" fill="#60FF60"/>
  <rect x="20" y="21" width="20" height="3" fill="#B03030"/>
  <rect x="24" y="24" width="12" height="3" fill="#D8A820"/>
  <rect x="4" y="26" width="16" height="5" fill="#D8A820"/>
  <rect x="2" y="27" width="4" height="3" fill="#C89818"/>
  <rect x="40" y="26" width="16" height="5" fill="#D8A820"/>
  <rect x="54" y="27" width="4" height="3" fill="#C89818"/>
  <rect x="18" y="27" width="24" height="12" fill="#D8A820"/>
  <rect x="22" y="29" width="16" height="6" fill="#E8C030"/>
  <rect x="54" y="28" width="8" height="6" fill="#209060"/>
  <rect x="58" y="26" width="4" height="4" fill="#186848"/>
  <rect x="2" y="30" width="8" height="6" fill="#D8A820"/>
  <rect x="4" y="32" width="4" height="4" fill="#C89818"/>
  <rect x="20" y="39" width="20" height="4" fill="#D0A020"/>
  <rect x="19" y="43" width="22" height="4" fill="#C83838"/>
  <rect x="26" y="43" width="8" height="4" fill="#D84848"/>
  <rect x="16" y="47" width="10" height="10" fill="#D8A820"/>
  <rect x="17" y="48" width="8" height="8" fill="#D0A020"/>
  <rect x="18" y="49" width="4" height="4" fill="#E0B828"/>
  <rect x="16" y="57" width="10" height="4" fill="#C83838"/>
  <rect x="17" y="58" width="8" height="2" fill="#D84848"/>
  <rect x="16" y="61" width="10" height="12" fill="#D8A820"/>
  <rect x="17" y="62" width="8" height="10" fill="#D0A020"/>
  <rect x="18" y="63" width="3" height="6" fill="#E0B828"/>
  <rect x="36" y="47" width="10" height="10" fill="#D8A820"/>
  <rect x="37" y="48" width="8" height="8" fill="#D0A020"/>
  <rect x="38" y="49" width="4" height="4" fill="#E0B828"/>
  <rect x="36" y="57" width="10" height="4" fill="#C83838"/>
  <rect x="37" y="58" width="8" height="2" fill="#D84848"/>
  <rect x="36" y="61" width="10" height="12" fill="#D8A820"/>
  <rect x="37" y="62" width="8" height="10" fill="#D0A020"/>
  <rect x="38" y="63" width="3" height="6" fill="#E0B828"/>
  <rect x="13" y="73" width="14" height="8" fill="#C83838"/>
  <rect x="12" y="75" width="15" height="6" fill="#B03030"/>
  <rect x="14" y="74" width="10" height="4" fill="#D84848"/>
  <rect x="11" y="81" width="16" height="4" fill="#903030"/>
  <rect x="12" y="85" width="14" height="3" fill="#782828"/>
  <rect x="11" y="79" width="3" height="2" fill="#B03030"/>
  <rect x="35" y="73" width="14" height="8" fill="#C83838"/>
  <rect x="35" y="75" width="15" height="6" fill="#B03030"/>
  <rect x="38" y="74" width="10" height="4" fill="#D84848"/>
  <rect x="35" y="81" width="16" height="4" fill="#903030"/>
  <rect x="36" y="85" width="14" height="3" fill="#782828"/>
  <rect x="48" y="79" width="3" height="2" fill="#B03030"/>
</svg>
