<svg xmlns="http://www.w3.org/2000/svg" width="16" height="16" viewBox="0 0 16 16" shape-rendering="crispEdges">
  <rect x="4" y="2" width="8" height="2" fill="#30A030"/>
  <rect x="2" y="4" width="12" height="8" fill="#30A030"/>
  <rect x="4" y="12" width="8" height="2" fill="#30A030"/>
  <rect x="6" y="1" width="4" height="1" fill="#30A030"/>
  <rect x="6" y="14" width="4" height="1" fill="#30A030"/>
  <rect x="1" y="6" width="2" height="4" fill="#30A030"/>
  <rect x="13" y="6" width="2" height="4" fill="#30A030"/>
  <rect x="5" y="4" width="6" height="8" fill="#50D850"/>
  <rect x="4" y="5" width="8" height="6" fill="#50D850"/>
  <rect x="5" y="5" width="4" height="4" fill="#90F890"/>
  <rect x="6" y="6" width="2" height="2" fill="#FFFFFF"/>
  <rect x="3" y="3" width="2" height="2" fill="#60E860"/>
  <rect x="11" y="3" width="2" height="2" fill="#60E860"/>
  <rect x="3" y="11" width="2" height="2" fill="#60E860"/>
  <rect x="11" y="11" width="2" height="2" fill="#60E860"/>
</svg>
